<svg width="20" height="20" viewBox="0 0 20 20" fill="none" xmlns="http://www.w3.org/2000/svg">
<g clip-path="url(#clip0_102_98)">
<path d="M17.8125 0.703125H2.1875C1.36906 0.703125 0.703125 1.36906 0.703125 2.1875V3.84531C0.703125 4.49125 1.22875 5.01719 1.875 5.01719C2.52125 5.01719 3.04688 4.49125 3.04688 3.84531V3.04688H16.9531V16.9531H3.04688V16.1547C3.04688 15.5087 2.52125 14.9828 1.875 14.9828C1.22875 14.9828 0.703125 15.5087 0.703125 16.1547V17.8125C0.703125 18.6309 1.36906 19.2969 2.1875 19.2969H17.8125C18.6309 19.2969 19.2969 18.6309 19.2969 17.8125V2.1875C19.2969 1.36906 18.6309 0.703125 17.8125 0.703125Z" fill="white"/>
<path d="M0.703125 10C0.703125 10.6459 1.235 11.1719 1.88844 11.1719H8.8625L7.81937 12.2C7.35781 12.6362 7.35781 13.4234 7.81937 13.8597C8.28062 14.3147 9.03188 14.3147 9.49313 13.8597L12.7912 10.6087C12.9559 10.4462 13.0469 10.23 13.0469 10C13.0469 9.77 12.9559 9.55344 12.7912 9.39125L9.49313 6.14031C9.03156 5.68562 8.28062 5.68531 7.81937 6.14031C7.35781 6.57656 7.35781 7.36344 7.81937 7.8L8.8625 8.82812H1.88844C1.23469 8.82812 0.703125 9.35406 0.703125 10Z" fill="white"/>
</g>
<defs>
<clipPath id="clip0_102_98">
<rect width="20" height="20" fill="white"/>
</clipPath>
</defs>
</svg>
