<svg width="96" height="96" viewBox="0 0 96 96" fill="none" xmlns="http://www.w3.org/2000/svg">
<g clip-path="url(#clip0_155_4)">
<path d="M32.6139 44.051C33.013 43.652 33.4767 43.3575 33.9715 43.1672L69.8793 29.3566C70.2529 29.2129 70.6443 29.1293 71.0387 29.1045C71.1062 28.0248 70.728 26.9223 69.9028 26.0972C68.7763 24.9708 67.1329 24.676 65.7361 25.2134L29.8283 39.0241C29.3336 39.2143 28.8697 39.5089 28.4708 39.9079C26.9453 41.4334 26.9453 43.9067 28.4708 45.4322C28.9731 45.9345 29.5783 46.2715 30.2185 46.4429L31.4708 46.7784C31.4795 45.7903 31.86 44.8049 32.6139 44.051Z" fill="#CEE1F2"/>
<path d="M49.1868 46.8132C49.9495 47.5759 51.1862 47.576 51.9489 46.8132L60.2354 38.5268C60.9982 37.7641 60.9982 36.5274 60.2354 35.7647C59.4726 35.002 58.236 35.0019 57.4733 35.7647L49.1868 44.0511C48.424 44.8138 48.424 46.0504 49.1868 46.8132Z" fill="#FF8A00"/>
<path d="M27.0898 38.5268C24.8052 40.8113 24.8052 44.5286 27.0898 46.8131C27.8168 47.5403 28.724 48.0646 29.7132 48.3294L42.7908 51.8322C43.4601 52.0114 43.9886 52.54 44.1678 53.2094L47.6705 66.2864C47.9354 67.2758 48.4598 68.1831 49.1868 68.9102C51.4766 71.1999 55.183 71.2005 57.4732 68.9103C58.0578 68.3257 58.5039 67.6401 58.799 66.8728L72.6096 30.965C73.4406 28.805 72.9201 26.3523 71.2839 24.716C69.6477 23.0798 67.1948 22.5594 65.035 23.3904L29.1272 37.201C28.3598 37.4962 27.6742 37.9422 27.0898 38.5268ZM29.8519 41.2889C30.0474 41.0934 30.2754 40.9447 30.5294 40.847L66.4374 27.0363C67.1682 26.7551 67.9839 26.9404 68.5218 27.4782C69.0675 28.0239 69.2409 28.8421 68.9638 29.5626V29.5627L55.153 65.4707C55.0553 65.7246 54.9067 65.9525 54.7111 66.1481C53.9479 66.9114 52.7125 66.9114 51.949 66.1481C51.7028 65.9019 51.5328 65.6087 51.4439 65.2761L47.941 52.1988C47.4018 50.1846 45.8185 48.5991 43.8013 48.059L30.7237 44.5562C30.3913 44.4672 30.0981 44.2973 29.8519 44.051C29.0904 43.2895 29.0904 42.0504 29.8519 41.2889Z" fill="#10ACFF"/>
<path d="M23.572 72.428C24.3347 73.1907 25.5713 73.1908 26.3341 72.428L34.6206 64.1415C35.3833 63.3787 35.3833 62.1421 34.6206 61.3794C33.8578 60.6167 32.6211 60.6166 31.8584 61.3794L23.572 69.6659C22.8093 70.4286 22.8093 71.6652 23.572 72.428Z" fill="#10ACFF"/>
<path d="M37.3827 72.428L42.9069 66.9037C43.6697 66.141 43.6697 64.9043 42.9069 64.1416C42.1441 63.3789 40.9075 63.3788 40.1448 64.1416L34.6206 69.6659C33.8578 70.4286 33.8578 71.6653 34.6206 72.428C35.3833 73.1907 36.62 73.1908 37.3827 72.428Z" fill="#10ACFF"/>
<path d="M23.572 61.3794C24.3347 62.1421 25.5713 62.1422 26.3341 61.3794L31.8583 55.8552C32.6211 55.0924 32.6211 53.8557 31.8583 53.0931C31.0956 52.3304 29.8589 52.3303 29.0962 53.0931L23.572 58.6173C22.8093 59.38 22.8093 60.6166 23.572 61.3794Z" fill="#10ACFF"/>
</g>
<rect x="15" width="15" height="15" fill="#DDEFFF"/>
<rect x="15" y="30" width="15" height="15" transform="rotate(-180 15 30)" fill="#DDEFFF"/>
<rect x="81" y="66" width="15" height="15" fill="#DDEFFF"/>
<rect x="81" y="96" width="15" height="15" transform="rotate(-180 81 96)" fill="#DDEFFF"/>
<defs>
<clipPath id="clip0_155_4">
<rect width="50" height="50" fill="white" transform="translate(23 23)"/>
</clipPath>
</defs>
</svg>
