<svg width="96" height="96" viewBox="0 0 96 96" fill="none" xmlns="http://www.w3.org/2000/svg">
<g clip-path="url(#clip0_155_7)">
<path d="M30.8125 55.5156V40.6719C30.8125 36.3571 34.3103 32.8594 38.625 32.8594H32.7656C28.4509 32.8594 24.9531 36.3571 24.9531 40.6719V55.5156C24.9531 59.8304 28.4509 63.3281 32.7656 63.3281H38.625C34.3103 63.3281 30.8125 59.8304 30.8125 55.5156Z" fill="#CEE1F2"/>
<path fill-rule="evenodd" clip-rule="evenodd" d="M32.7656 34.8125C29.5296 34.8125 26.9062 37.4358 26.9062 40.6719V55.5156C26.9062 58.7517 29.5296 61.375 32.7656 61.375H63.2344C66.4704 61.375 69.0938 58.7517 69.0938 55.5156V40.6719C69.0938 37.4358 66.4704 34.8125 63.2344 34.8125H32.7656ZM23 40.6719C23 35.2784 27.3722 30.9062 32.7656 30.9062H63.2344C68.6278 30.9062 73 35.2784 73 40.6719V55.5156C73 60.9091 68.6278 65.2812 63.2344 65.2812H32.7656C27.3722 65.2812 23 60.9091 23 55.5156V40.6719Z" fill="#10ACFF"/>
<path fill-rule="evenodd" clip-rule="evenodd" d="M32.7656 27C33.8443 27 34.7188 27.8744 34.7188 28.9531V32.8594C34.7188 33.9381 33.8443 34.8125 32.7656 34.8125C31.6869 34.8125 30.8125 33.9381 30.8125 32.8594V28.9531C30.8125 27.8744 31.6869 27 32.7656 27Z" fill="#10ACFF"/>
<path fill-rule="evenodd" clip-rule="evenodd" d="M48 27C49.0787 27 49.9531 27.8744 49.9531 28.9531V32.8594C49.9531 33.9381 49.0787 34.8125 48 34.8125C46.9213 34.8125 46.0469 33.9381 46.0469 32.8594V28.9531C46.0469 27.8744 46.9213 27 48 27Z" fill="#10ACFF"/>
<path fill-rule="evenodd" clip-rule="evenodd" d="M63.2344 27C64.3131 27 65.1875 27.8744 65.1875 28.9531V32.8594C65.1875 33.9381 64.3131 34.8125 63.2344 34.8125C62.1557 34.8125 61.2812 33.9381 61.2812 32.8594V28.9531C61.2812 27.8744 62.1557 27 63.2344 27Z" fill="#10ACFF"/>
<path fill-rule="evenodd" clip-rule="evenodd" d="M44.0938 69.1875C45.1724 69.1875 46.0469 70.0619 46.0469 71.1406V73.0938H49.9531V71.1406C49.9531 70.0619 50.8276 69.1875 51.9062 69.1875C52.9849 69.1875 53.8594 70.0619 53.8594 71.1406V75.0469C53.8594 76.1256 52.9849 77 51.9062 77H44.0938C43.0151 77 42.1406 76.1256 42.1406 75.0469V71.1406C42.1406 70.0619 43.0151 69.1875 44.0938 69.1875Z" fill="#10ACFF"/>
<path fill-rule="evenodd" clip-rule="evenodd" d="M40.1875 42.625C39.1089 42.625 38.2344 43.4995 38.2344 44.5781V55.5156C38.2344 56.5943 37.3599 57.4688 36.2812 57.4688C35.2026 57.4688 34.3281 56.5943 34.3281 55.5156V44.5781C34.3281 41.3421 36.9515 38.7188 40.1875 38.7188C43.4235 38.7188 46.0469 41.3421 46.0469 44.5781V55.5156C46.0469 56.5943 45.1724 57.4688 44.0938 57.4688C43.0151 57.4688 42.1406 56.5943 42.1406 55.5156V44.5781C42.1406 43.4995 41.2661 42.625 40.1875 42.625Z" fill="#FF8A00"/>
<path fill-rule="evenodd" clip-rule="evenodd" d="M49.9531 40.6719C49.9531 39.5932 50.8276 38.7188 51.9062 38.7188H55.8125C59.0485 38.7188 61.6719 41.3421 61.6719 44.5781V51.6094C61.6719 54.8454 59.0485 57.4688 55.8125 57.4688H51.9062C50.8276 57.4688 49.9531 56.5943 49.9531 55.5156V40.6719ZM53.8594 42.625V53.5625H55.8125C56.8911 53.5625 57.7656 52.688 57.7656 51.6094V44.5781C57.7656 43.4995 56.8911 42.625 55.8125 42.625H53.8594Z" fill="#FF8A00"/>
<path fill-rule="evenodd" clip-rule="evenodd" d="M34.3281 48.4844C34.3281 47.4057 35.2026 46.5312 36.2812 46.5312H44.0938C45.1724 46.5312 46.0469 47.4057 46.0469 48.4844C46.0469 49.5631 45.1724 50.4375 44.0938 50.4375H36.2812C35.2026 50.4375 34.3281 49.5631 34.3281 48.4844Z" fill="#FF8A00"/>
</g>
<rect x="15" width="15" height="15" fill="#DDEFFF"/>
<rect x="15" y="30" width="15" height="15" transform="rotate(-180 15 30)" fill="#DDEFFF"/>
<rect x="81" y="66" width="15" height="15" fill="#DDEFFF"/>
<rect x="81" y="96" width="15" height="15" transform="rotate(-180 81 96)" fill="#DDEFFF"/>
<defs>
<clipPath id="clip0_155_7">
<rect width="50" height="50" fill="white" transform="translate(23 27)"/>
</clipPath>
</defs>
</svg>
