<svg width="96" height="96" viewBox="0 0 96 96" fill="none" xmlns="http://www.w3.org/2000/svg">
<path d="M30.8125 57.7188V34.2812C30.8125 29.9663 34.3104 26.4688 38.625 26.4688H32.7656C28.451 26.4688 24.9531 29.9663 24.9531 34.2812V57.7188C24.9531 62.0334 28.451 65.5312 32.7656 65.5312H38.625C34.3104 65.5312 30.8125 62.0334 30.8125 57.7188Z" fill="#CEE1F2"/>
<path fill-rule="evenodd" clip-rule="evenodd" d="M23 34.2812C23 28.8878 27.3722 24.5156 32.7656 24.5156H47.6094C53.0028 24.5156 57.375 28.8878 57.375 34.2812V57.7188C57.375 61.278 60.5444 64.0965 64.2328 63.4965C66.9912 63.0478 69.0938 60.3812 69.0938 57.3008V34.2812C69.0938 33.2026 69.9682 32.3281 71.0469 32.3281C72.1256 32.3281 73 33.2026 73 34.2812V57.3008C73 62.0037 69.784 66.551 64.86 67.3521L64.86 67.3521C64.2673 67.4485 63.6822 67.4912 63.1089 67.4844H32.7656C27.3722 67.4844 23 63.1122 23 57.7188V34.2812ZM55.4217 63.5781H32.7656C29.5296 63.5781 26.9062 60.9548 26.9062 57.7188V34.2812C26.9062 31.0452 29.5296 28.4219 32.7656 28.4219H47.6094C50.8454 28.4219 53.4688 31.0452 53.4688 34.2812V57.7188C53.4688 59.9172 54.1958 61.946 55.4217 63.5781Z" fill="#10ACFF"/>
<path fill-rule="evenodd" clip-rule="evenodd" d="M63.2344 32.3281C64.3131 32.3281 65.1875 33.2026 65.1875 34.2812V57.7188C65.1875 58.7974 64.3131 59.6719 63.2344 59.6719C62.1557 59.6719 61.2812 58.7974 61.2812 57.7188V34.2812C61.2812 33.2026 62.1557 32.3281 63.2344 32.3281Z" fill="#FF8A00"/>
<path fill-rule="evenodd" clip-rule="evenodd" d="M30.8125 38.1875C30.8125 37.1088 31.6869 36.2344 32.7656 36.2344H47.6094C48.6881 36.2344 49.5625 37.1088 49.5625 38.1875C49.5625 39.2662 48.6881 40.1406 47.6094 40.1406H32.7656C31.6869 40.1406 30.8125 39.2662 30.8125 38.1875Z" fill="#10ACFF"/>
<path fill-rule="evenodd" clip-rule="evenodd" d="M30.8125 46C30.8125 44.9213 31.6869 44.0469 32.7656 44.0469H47.6094C48.6881 44.0469 49.5625 44.9213 49.5625 46C49.5625 47.0787 48.6881 47.9531 47.6094 47.9531H32.7656C31.6869 47.9531 30.8125 47.0787 30.8125 46Z" fill="#10ACFF"/>
<path fill-rule="evenodd" clip-rule="evenodd" d="M30.8125 53.8125C30.8125 52.7338 31.6869 51.8594 32.7656 51.8594H47.6094C48.6881 51.8594 49.5625 52.7338 49.5625 53.8125C49.5625 54.8912 48.6881 55.7656 47.6094 55.7656H32.7656C31.6869 55.7656 30.8125 54.8912 30.8125 53.8125Z" fill="#10ACFF"/>
<rect x="15" width="15" height="15" fill="#DDEFFF"/>
<rect x="15" y="30" width="15" height="15" transform="rotate(-180 15 30)" fill="#DDEFFF"/>
<rect x="81" y="66" width="15" height="15" fill="#DDEFFF"/>
<rect x="81" y="96" width="15" height="15" transform="rotate(-180 81 96)" fill="#DDEFFF"/>
</svg>
