<svg width="96" height="96" viewBox="0 0 96 96" fill="none" xmlns="http://www.w3.org/2000/svg">
<path d="M30.8125 64.3345V40.897C30.8125 36.5822 34.3103 33.0845 38.625 33.0845H32.7656C28.4509 33.0845 24.9531 36.5822 24.9531 40.897V64.3345C24.9531 66.4918 26.7021 68.2407 28.8594 68.2407C29.8593 68.2407 30.7715 67.8649 31.4627 67.247L31.8077 66.9384C31.1891 66.2473 30.8125 65.335 30.8125 64.3345Z" fill="#CEE1F2"/>
<path d="M32.7656 54.5688H38.625C39.7037 54.5688 40.5781 53.6944 40.5781 52.6157C40.5781 51.537 39.7037 50.6626 38.625 50.6626H32.7656C31.6869 50.6626 30.8125 51.537 30.8125 52.6157C30.8125 53.6944 31.6869 54.5688 32.7656 54.5688Z" fill="#FF8A00"/>
<path d="M32.7656 46.7563H38.625C39.7037 46.7563 40.5781 45.8819 40.5781 44.8032C40.5781 43.7245 39.7037 42.8501 38.625 42.8501H32.7656C31.6869 42.8501 30.8125 43.7245 30.8125 44.8032C30.8125 45.8819 31.6869 46.7563 32.7656 46.7563Z" fill="#FF8A00"/>
<path d="M44.2345 52.6158C44.2345 53.6945 45.1089 54.5689 46.1876 54.5689C50.2717 54.5689 54.1114 52.9785 56.9992 50.0906L71.2824 35.806C73.5723 33.5163 73.5727 29.8097 71.2824 27.5196C68.998 25.235 65.2807 25.235 62.996 27.5196L48.7128 41.8042C45.825 44.6921 44.2345 48.5317 44.2345 52.6158ZM65.7583 30.2818C66.5197 29.5203 67.7589 29.5203 68.5203 30.2818C69.2836 31.0449 69.2839 32.2805 68.5203 33.0439L54.237 47.3285C52.6043 48.9613 50.5628 50.037 48.3433 50.4601C48.7664 48.2407 49.8422 46.1992 51.4748 44.5664L65.7583 30.2818Z" fill="#10ACFF"/>
<path d="M28.8594 70.1938C30.3023 70.1938 31.6893 69.6644 32.7648 68.7026L35.4647 66.2876H55.4219C60.8067 66.2876 65.1875 61.9067 65.1875 56.522V52.1408C65.1875 51.0621 64.3131 50.1877 63.2344 50.1877C62.1557 50.1877 61.2812 51.0621 61.2812 52.1408V56.522C61.2812 59.7528 58.6527 62.3813 55.4219 62.3813H34.7188C34.2383 62.3813 33.7747 62.5584 33.4166 62.8787L30.1609 65.7909C29.8026 66.1112 29.3404 66.2876 28.8594 66.2876C27.7824 66.2876 26.9062 65.4114 26.9062 64.3345V40.897C26.9062 37.6661 29.5348 35.0376 32.7656 35.0376H49.1474C50.2261 35.0376 51.1005 34.1632 51.1005 33.0845C51.1005 32.0058 50.2261 31.1313 49.1474 31.1313H32.7656C27.3808 31.1313 23 35.5122 23 40.897V64.3345C23 67.5653 25.6285 70.1938 28.8594 70.1938Z" fill="#10ACFF"/>
<rect x="15" width="15" height="15" fill="#DDEFFF"/>
<rect x="15" y="30" width="15" height="15" transform="rotate(-180 15 30)" fill="#DDEFFF"/>
<rect x="81" y="66" width="15" height="15" fill="#DDEFFF"/>
<rect x="81" y="96" width="15" height="15" transform="rotate(-180 81 96)" fill="#DDEFFF"/>
</svg>
