<svg width="96" height="96" viewBox="0 0 96 96" fill="none" xmlns="http://www.w3.org/2000/svg">
<g clip-path="url(#clip0_155_5)">
<path d="M30.8125 65.1875V34.7188C30.8125 31.4827 33.4358 28.8594 36.6719 28.8594H30.8125C27.5765 28.8594 24.9531 31.4827 24.9531 34.7188V65.1875C24.9531 68.4235 27.5765 71.0469 30.8125 71.0469H36.6719C33.4358 71.0469 30.8125 68.4235 30.8125 65.1875Z" fill="#CEE1F2"/>
<path fill-rule="evenodd" clip-rule="evenodd" d="M67.1406 26.5156C68.2193 26.5156 69.0938 27.3901 69.0938 28.4688V32.375C69.0938 33.4537 68.2193 34.3281 67.1406 34.3281C66.0619 34.3281 65.1875 33.4537 65.1875 32.375V28.4688C65.1875 27.3901 66.0619 26.5156 67.1406 26.5156Z" fill="#10ACFF"/>
<path fill-rule="evenodd" clip-rule="evenodd" d="M67.1406 61.6719C68.2193 61.6719 69.0938 62.5463 69.0938 63.625V67.5312C69.0938 68.6099 68.2193 69.4844 67.1406 69.4844C66.0619 69.4844 65.1875 68.6099 65.1875 67.5312V63.625C65.1875 62.5463 66.0619 61.6719 67.1406 61.6719Z" fill="#10ACFF"/>
<path fill-rule="evenodd" clip-rule="evenodd" d="M67.1406 34.3281C66.062 34.3281 65.1875 35.2026 65.1875 36.2812V42.1406H69.0938V36.2812C69.0938 35.2026 68.2193 34.3281 67.1406 34.3281ZM65.1875 46.0469H71.0469C72.1256 46.0469 73 45.1724 73 44.0938V36.2812C73 33.0452 70.3766 30.4219 67.1406 30.4219C63.9046 30.4219 61.2812 33.0452 61.2812 36.2812V54.1945C61.2812 58.2496 62.8921 62.1386 65.7596 65.0061C66.5223 65.7688 67.7589 65.7688 68.5217 65.0061C71.3892 62.1387 73 58.2496 73 54.1945V51.9062C73 50.8276 72.1256 49.9531 71.0469 49.9531C69.9682 49.9531 69.0938 50.8276 69.0938 51.9062V54.1945C69.0938 56.4835 68.4044 58.7014 67.1406 60.5705C65.8769 58.7013 65.1875 56.4835 65.1875 54.1945V46.0469Z" fill="#10ACFF"/>
<path fill-rule="evenodd" clip-rule="evenodd" d="M30.8125 30.8125C28.6551 30.8125 26.9062 32.5614 26.9062 34.7188V65.1875C26.9062 67.3449 28.6551 69.0938 30.8125 69.0938H50.3438C52.5011 69.0938 54.25 67.3449 54.25 65.1875V34.7188C54.25 32.5614 52.5011 30.8125 50.3438 30.8125H48.3906C47.3119 30.8125 46.4375 29.9381 46.4375 28.8594C46.4375 27.7807 47.3119 26.9062 48.3906 26.9062H50.3438C54.6585 26.9062 58.1562 30.404 58.1562 34.7188V65.1875C58.1562 69.5022 54.6585 73 50.3438 73H30.8125C26.4978 73 23 69.5022 23 65.1875V34.7188C23 30.404 26.4978 26.9062 30.8125 26.9062H32.7656C33.8443 26.9062 34.7188 27.7807 34.7188 28.8594C34.7188 29.9381 33.8443 30.8125 32.7656 30.8125H30.8125Z" fill="#10ACFF"/>
<path fill-rule="evenodd" clip-rule="evenodd" d="M36.6719 26.9062C35.5932 26.9062 34.7188 27.7807 34.7188 28.8594C34.7188 29.938 35.5932 30.8125 36.6719 30.8125H44.4844C45.563 30.8125 46.4375 29.938 46.4375 28.8594C46.4375 27.7807 45.563 26.9062 44.4844 26.9062H36.6719ZM30.8125 28.8594C30.8125 25.6234 33.4359 23 36.6719 23H44.4844C47.7204 23 50.3438 25.6234 50.3438 28.8594C50.3438 32.0954 47.7204 34.7188 44.4844 34.7188H36.6719C33.4359 34.7188 30.8125 32.0954 30.8125 28.8594Z" fill="#10ACFF"/>
<path fill-rule="evenodd" clip-rule="evenodd" d="M38.625 44.0938C38.625 43.0151 39.4994 42.1406 40.5781 42.1406H48.3906C49.4693 42.1406 50.3438 43.0151 50.3438 44.0938C50.3438 45.1724 49.4693 46.0469 48.3906 46.0469H40.5781C39.4994 46.0469 38.625 45.1724 38.625 44.0938Z" fill="#FF8A00"/>
<path fill-rule="evenodd" clip-rule="evenodd" d="M38.625 51.9062C38.625 50.8276 39.4994 49.9531 40.5781 49.9531H48.3906C49.4693 49.9531 50.3438 50.8276 50.3438 51.9062C50.3438 52.9849 49.4693 53.8594 48.3906 53.8594H40.5781C39.4994 53.8594 38.625 52.9849 38.625 51.9062Z" fill="#FF8A00"/>
<path fill-rule="evenodd" clip-rule="evenodd" d="M38.625 59.7188C38.625 58.6401 39.4994 57.7656 40.5781 57.7656H48.3906C49.4693 57.7656 50.3438 58.6401 50.3438 59.7188C50.3438 60.7974 49.4693 61.6719 48.3906 61.6719H40.5781C39.4994 61.6719 38.625 60.7974 38.625 59.7188Z" fill="#FF8A00"/>
</g>
<rect x="15" width="15" height="15" fill="#DDEFFF"/>
<rect x="15" y="30" width="15" height="15" transform="rotate(-180 15 30)" fill="#DDEFFF"/>
<rect x="81" y="66" width="15" height="15" fill="#DDEFFF"/>
<rect x="81" y="96" width="15" height="15" transform="rotate(-180 81 96)" fill="#DDEFFF"/>
<defs>
<clipPath id="clip0_155_5">
<rect width="50" height="50" fill="white" transform="translate(23 23)"/>
</clipPath>
</defs>
</svg>
