<svg width="96" height="96" viewBox="0 0 96 96" fill="none" xmlns="http://www.w3.org/2000/svg">
<path d="M30.8125 61.2344V46.3906C30.8125 45.3608 31.2116 44.4248 31.8627 43.727L31.064 43.1654C30.4365 42.7357 29.6773 42.4844 28.8594 42.4844C26.7021 42.4844 24.9531 44.2333 24.9531 46.3906V61.2344C24.9531 65.5491 28.4509 69.0469 32.7656 69.0469H38.625C34.3103 69.0469 30.8125 65.5491 30.8125 61.2344Z" fill="#CEE1F2"/>
<path d="M38.8066 35.0076C38.5768 35.7146 38.7684 36.4908 39.3009 37.0098L41.9004 39.5436L41.2867 43.1213C41.161 43.854 41.4622 44.5946 42.0636 45.0316C42.665 45.4686 43.4624 45.5263 44.1205 45.1803L47.3335 43.4911L50.5465 45.1803C51.2098 45.529 52.0068 45.465 52.6033 45.0316C53.2047 44.5946 53.5059 43.8541 53.3802 43.1214L52.7667 39.5437L55.366 37.0099C55.8984 36.4909 56.09 35.7147 55.8603 35.0077C55.6306 34.3007 55.0194 33.7854 54.2836 33.6784L50.6914 33.1564L49.0849 29.9012C48.7559 29.2346 48.0769 28.8125 47.3336 28.8125C46.5901 28.8125 45.9112 29.2346 45.5821 29.9013L43.9757 33.1563L40.3834 33.6783C39.6476 33.7853 39.0364 34.3006 38.8066 35.0076ZM45.5535 36.8743C46.1897 36.7818 46.7396 36.3823 47.0241 35.8059L47.3336 35.1788L47.6431 35.806C47.9276 36.3824 48.4775 36.7819 49.1137 36.8744L49.8058 36.975L49.3051 37.4632C48.8447 37.9118 48.6346 38.5583 48.7433 39.1919L48.8615 39.8812L48.2425 39.5557C47.6734 39.2565 46.9937 39.2565 46.4248 39.5557L45.8058 39.8811L45.924 39.1919C46.0327 38.5583 45.8226 37.9118 45.3623 37.4631L44.8615 36.9749L45.5535 36.8743Z" fill="#FF8A00"/>
<path d="M32.7656 71H63.2344C68.6192 71 73 66.6191 73 61.2344V46.3906C73 43.1598 70.3715 40.5312 67.1406 40.5312C65.9535 40.5312 64.8096 40.8849 63.8325 41.5539C63.8259 41.5584 49.093 51.916 49.093 51.916C48.7705 52.1346 48.3928 52.25 48 52.25C47.6073 52.25 47.2298 52.1347 46.9074 51.9163C46.9074 51.9163 32.1743 41.5585 32.1676 41.554C31.1905 40.8849 30.0466 40.5312 28.8594 40.5312C25.6285 40.5312 23 43.1598 23 46.3906V61.2344C23 66.6191 27.3808 71 32.7656 71ZM26.9062 46.3906C26.9062 45.3137 27.7824 44.4375 28.8594 44.4375C29.2521 44.4375 29.6299 44.5529 29.9523 44.7714C44.7697 55.1885 44.6768 55.1233 44.6919 55.1336C45.6689 55.8026 46.8129 56.1562 48 56.1562C49.1872 56.1562 50.3312 55.8026 51.3082 55.1336C51.3241 55.1228 50.755 55.5227 66.048 44.7713C66.3704 44.5528 66.7479 44.4375 67.1406 44.4375C68.2176 44.4375 69.0938 45.3137 69.0938 46.3906V61.2344C69.0938 64.4652 66.4652 67.0938 63.2344 67.0938H32.7656C29.5348 67.0938 26.9062 64.4652 26.9062 61.2344V46.3906Z" fill="#10ACFF"/>
<path d="M63.625 37.2928C64.7037 37.2928 65.5781 36.4184 65.5781 35.3396V30.7656C65.5781 25.3809 61.1974 21 55.8125 21H40.1875C34.8026 21 30.4219 25.3809 30.4219 30.7656V35.3394C30.4219 36.4181 31.2963 37.2925 32.375 37.2925C33.4537 37.2925 34.3281 36.4181 34.3281 35.3394V30.7656C34.3281 27.5348 36.9566 24.9063 40.1875 24.9063H55.8125C59.0434 24.9063 61.6719 27.5348 61.6719 30.7656V35.3396C61.6719 36.4184 62.5463 37.2928 63.625 37.2928Z" fill="#10ACFF"/>
<rect x="15" width="15" height="15" fill="#DDEFFF"/>
<rect x="15" y="30" width="15" height="15" transform="rotate(-180 15 30)" fill="#DDEFFF"/>
<rect x="81" y="66" width="15" height="15" fill="#DDEFFF"/>
<rect x="81" y="96" width="15" height="15" transform="rotate(-180 81 96)" fill="#DDEFFF"/>
</svg>
