<svg width="20" height="20" viewBox="0 0 20 20" fill="none" xmlns="http://www.w3.org/2000/svg">
<g clip-path="url(#clip0_97_77)">
<path d="M19.1718 13.5089C18.5763 12.7947 17.8756 12.1851 17.2126 11.5379C16.6144 10.9544 16.5767 10.616 17.0575 9.94256C17.5823 9.20761 18.1467 8.50085 18.6762 7.76921C19.1706 7.08545 19.6759 6.40356 19.936 5.58487C20.101 5.06402 19.9551 4.83396 19.4209 4.74276C19.3289 4.7268 19.2338 4.72597 19.1401 4.72597L15.9713 4.72224C15.581 4.71644 15.3652 4.8866 15.2272 5.23252C15.0409 5.70011 14.8487 6.16728 14.6267 6.61849C14.1231 7.64154 13.5606 8.63039 12.772 9.46773C12.5981 9.6524 12.4057 9.88577 12.1151 9.7896C11.7516 9.65696 11.6444 9.05797 11.6505 8.85547L11.6474 5.19791C11.5769 4.6754 11.461 4.44244 10.9422 4.34088L7.6505 4.3415C7.2111 4.3415 6.99079 4.51125 6.75616 4.78608C6.62082 4.94484 6.57999 5.04785 6.85814 5.1005C7.40448 5.20413 7.71227 5.55772 7.79393 6.10551C7.92492 6.98078 7.9158 7.85958 7.84035 8.73837C7.81818 8.99496 7.77403 9.25093 7.67226 9.49052C7.51309 9.86712 7.25608 9.94381 6.91845 9.71209C6.61274 9.50234 6.39802 9.20637 6.18785 8.90915C5.39839 7.79367 4.76852 6.59072 4.25492 5.32662C4.10652 4.96143 3.85055 4.74007 3.46359 4.73406C2.51288 4.71893 1.56196 4.71644 0.611247 4.73489C0.0392022 4.74566 -0.131375 5.0234 0.101588 5.54197C1.13707 7.84527 2.28966 10.0845 3.79418 12.1244C4.56664 13.1713 5.45352 14.0955 6.59927 14.7504C7.89777 15.4928 9.29554 15.7163 10.7677 15.6475C11.4571 15.6151 11.6641 15.4358 11.6961 14.7488C11.7176 14.2787 11.7709 13.8113 12.0028 13.3889C12.2304 12.9744 12.5751 12.8954 12.9724 13.1533C13.1711 13.2824 13.3386 13.4467 13.4968 13.62C13.8847 14.0445 14.2589 14.4818 14.6616 14.892C15.1667 15.406 15.765 15.7096 16.5174 15.6477L19.4298 15.6483C19.8991 15.6176 20.1424 15.0423 19.873 14.5185C19.6837 14.1517 19.4354 13.825 19.1718 13.5089Z" fill="white"/>
</g>
<defs>
<clipPath id="clip0_97_77">
<rect width="20" height="20" fill="white" transform="translate(0.000244141)"/>
</clipPath>
</defs>
</svg>
